<?xml version="1.0" standalone="no"?>
<!DOCTYPE svg PUBLIC "-//W3C//DTD SVG 20010904//EN"
 "http://www.w3.org/TR/2001/REC-SVG-20010904/DTD/svg10.dtd">
<svg version="1.0" xmlns="http://www.w3.org/2000/svg"
 width="300.000000pt" height="200.000000pt" viewBox="0 0 300.000000 200.000000"
 preserveAspectRatio="xMidYMid meet">
<metadata>
Created by potrace 1.10, written by Peter Selinger 2001-2011
</metadata>
<g transform="translate(0.000000,200.000000) scale(0.100000,-0.100000)"
fill="#000000" stroke="none">
<path d="M853 1795 c-408 -105 -661 -537 -557 -950 8 -33 37 -106 65 -162 42
-88 62 -116 137 -191 99 -101 195 -163 315 -204 72 -24 95 -26 236 -27 182 -2
237 11 383 86 178 92 311 252 381 457 25 76 35 297 17 390 -35 181 -139 349
-290 468 -64 50 -201 115 -294 138 -114 29 -271 27 -393 -5z m387 -22 c36 -8
111 -38 167 -65 181 -88 301 -232 368 -444 37 -117 41 -269 10 -427 -8 -43
-45 -130 -62 -149 -9 -10 -13 -18 -10 -18 17 0 -81 -131 -143 -193 -58 -56
-90 -78 -173 -117 -56 -26 -127 -53 -157 -60 -81 -18 -350 -9 -415 14 -68 23
-156 67 -179 88 -11 10 -24 18 -29 18 -4 0 -48 39 -96 87 -74 75 -95 103 -133
183 -70 144 -82 195 -82 340 0 115 13 202 41 270 3 8 7 17 7 20 5 21 90 170
97 170 5 0 9 5 9 11 0 14 126 135 170 164 19 12 57 34 84 49 139 77 355 102
526 59z"/>
<path d="M1245 1501 c-11 -5 -23 -7 -27 -4 -5 2 -8 -1 -8 -8 0 -7 -3 -10 -6
-6 -12 12 -126 -58 -183 -113 -31 -30 -84 -91 -116 -135 -81 -110 -138 -175
-152 -175 -7 0 -13 -4 -13 -8 0 -5 -14 -19 -31 -31 -18 -13 -28 -17 -24 -10 5
8 -2 5 -14 -6 -20 -18 -37 -20 -142 -20 -167 0 -180 -18 -99 -144 41 -64 132
-157 161 -166 11 -4 19 -10 19 -14 0 -14 116 -59 182 -71 35 -7 89 -9 121 -5
62 7 161 40 188 62 8 7 19 13 23 13 9 0 62 38 112 80 47 40 126 133 168 199
16 25 33 50 37 55 5 6 26 34 46 62 59 80 84 106 146 152 79 59 76 92 -15 183
-81 81 -152 112 -263 116 -49 1 -99 -1 -110 -6z m223 -49 c67 -26 125 -73 168
-136 39 -59 41 -66 15 -66 -35 0 -136 -106 -244 -258 -167 -235 -279 -326
-452 -369 -139 -34 -298 16 -410 131 -66 67 -152 199 -134 205 5 1 30 -2 54
-8 103 -26 213 -3 297 64 32 25 92 93 143 161 143 191 216 252 345 290 57 17
152 11 218 -14z"/>
<path d="M1428 1266 c-72 -19 -111 -57 -190 -182 -126 -200 -247 -311 -386
-354 -76 -24 -127 -25 -202 -5 -73 19 -75 12 -3 -15 47 -18 72 -21 133 -17 42
2 90 12 110 22 19 10 55 27 80 39 46 22 153 122 205 191 16 22 32 42 35 45 3
3 14 21 24 40 37 72 102 155 143 184 37 25 53 30 125 33 98 5 126 13 83 23
-46 12 -105 10 -157 -4z"/>
<path d="M675 1463 c-21 -26 -38 -43 -92 -92 -39 -35 -36 -49 17 -82 22 -13
42 -31 45 -40 9 -27 51 -60 68 -54 8 4 27 24 41 46 15 21 30 39 35 39 4 0 21
11 36 24 28 24 28 25 11 51 -9 14 -27 30 -39 36 -12 5 -32 25 -44 44 -34 51
-55 59 -78 28z m50 -49 c9 -33 17 -41 53 -54 45 -15 53 -27 25 -36 -65 -21
-71 -26 -79 -66 -11 -50 -31 -60 -39 -21 -12 56 -22 67 -71 84 l-49 16 30 13
c71 28 79 35 88 73 11 47 27 43 42 -9z"/>
<path d="M1402 802 c-6 -5 -23 -23 -37 -42 -37 -50 -34 -99 9 -144 29 -31 40
-36 79 -36 37 0 53 6 81 30 19 17 38 44 41 60 8 37 -21 100 -52 116 -13 6 -20
14 -16 17 9 10 -89 8 -105 -1z m86 -23 c77 -27 84 -127 12 -164 -43 -22 -68
-19 -101 15 -26 25 -30 36 -27 72 2 35 9 46 37 65 39 27 38 26 79 12z"/>
<path d="M1845 1812 c-78 -14 -198 -46 -240 -65 -43 -19 -79 -46 -71 -54 1 -1
39 13 83 33 120 51 206 67 343 61 166 -6 295 -52 428 -152 129 -97 241 -273
277 -435 68 -306 -67 -633 -330 -801 -227 -145 -518 -160 -755 -39 -48 25 -68
26 -49 4 15 -18 129 -77 136 -70 3 2 29 -4 59 -14 67 -23 218 -34 304 -22 87
13 192 41 210 57 8 8 28 17 43 21 16 3 31 13 34 20 3 8 13 14 23 14 10 0 27
11 38 25 11 13 22 22 25 18 4 -3 9 2 13 11 3 9 12 16 19 16 7 0 25 17 41 37
16 21 36 46 46 58 43 49 51 59 79 103 16 25 29 54 29 64 0 10 4 18 9 18 5 0
13 15 16 33 4 17 11 37 15 42 9 13 30 143 30 187 0 19 5 39 12 46 7 7 8 12 1
12 -6 0 -13 35 -16 83 -6 76 -31 179 -57 227 -6 12 -13 30 -15 40 -5 26 -35
70 -48 70 -6 0 -8 3 -4 6 3 4 -2 14 -11 23 -10 9 -13 14 -7 11 6 -3 -1 6 -15
19 -14 13 -19 20 -11 16 9 -6 12 -4 7 3 -4 7 -13 12 -19 12 -7 0 -27 21 -45
45 -19 24 -42 47 -53 50 -10 4 -19 11 -19 16 0 6 -16 17 -35 24 -19 8 -55 28
-81 44 -25 17 -60 33 -78 37 -17 3 -35 10 -41 14 -5 4 -17 7 -25 8 -8 0 -40 5
-71 11 -58 12 -190 20 -224 13z"/>
<path d="M1707 1658 c9 -49 23 -70 18 -28 -2 19 -4 41 -4 48 -1 6 -5 12 -11
12 -5 0 -7 -14 -3 -32z"/>
<path d="M2130 1535 c-11 -32 -30 -48 -30 -25 0 7 -7 7 -22 -1 -20 -11 -168
-13 -261 -5 -20 2 -40 0 -43 -5 -3 -5 -11 -6 -17 -3 -8 5 -9 4 -2 -4 6 -6 83
-12 199 -14 140 -2 190 -6 194 -15 2 -7 11 -13 21 -13 9 0 23 6 30 13 11 10
13 8 8 -10 -4 -18 4 -29 36 -53 112 -82 176 -267 156 -445 -14 -129 -57 -215
-145 -294 -83 -73 -114 -81 -328 -81 -188 0 -228 -7 -179 -29 22 -10 24 -14
12 -22 -9 -6 -10 -9 -1 -9 6 0 21 9 32 20 18 18 33 20 178 20 145 0 161 2 210
25 28 13 52 29 52 35 0 6 5 8 10 5 6 -3 10 -2 10 2 0 9 75 58 89 58 5 0 13 4
18 9 5 5 3 6 -4 2 -8 -4 -13 -1 -13 8 0 25 11 46 25 46 7 0 16 12 19 28 16 64
28 119 33 154 3 21 9 35 15 32 20 -13 -9 176 -43 280 -22 66 -58 138 -59 118
0 -7 -5 -10 -10 -7 -6 3 -7 17 -4 29 5 21 3 23 -20 19 -19 -4 -26 -1 -26 10 0
8 -5 17 -11 19 -8 3 -6 14 5 37 l18 33 -54 -5 c-29 -3 -64 -9 -77 -13 -21 -6
-23 -5 -16 12 11 26 19 74 12 74 -3 0 -11 -16 -17 -35z"/>
<path d="M1957 1523 c18 -2 50 -2 70 0 21 2 7 4 -32 4 -38 0 -55 -2 -38 -4z"/>
<path d="M1880 1261 c0 -7 9 -9 25 -5 30 7 34 -12 5 -21 -25 -8 -25 -22 -2
-48 16 -19 16 -20 0 -14 -10 3 -20 2 -23 -3 -18 -29 67 3 98 37 16 19 16 21
-2 37 -23 21 -101 34 -101 17z"/>
<path d="M2009 1240 c16 -14 22 -27 18 -41 -4 -17 -3 -19 6 -10 6 6 14 11 18
11 8 0 32 -62 35 -90 1 -8 5 -33 8 -56 3 -22 2 -55 -4 -73 -7 -24 -6 -31 3
-28 17 5 21 111 7 172 -14 65 -58 129 -90 133 l-25 3 24 -21z"/>
<path d="M1890 969 l0 -181 23 6 c12 3 39 6 60 6 42 0 82 32 111 87 16 33 22
62 9 49 -5 -4 -8 -11 -8 -15 0 -4 -16 -28 -35 -54 -34 -46 -71 -69 -77 -50 -2
6 -15 8 -28 5 -16 -3 -26 1 -29 9 -2 8 -7 74 -10 147 -5 113 -4 132 9 132 21
0 19 13 -5 28 -20 12 -20 10 -20 -169z"/>
<path d="M1650 431 c0 -7 -4 -10 -9 -6 -6 3 -14 -3 -20 -13 -8 -14 -6 -18 10
-18 19 0 37 32 25 43 -3 4 -6 1 -6 -6z"/>
</g>
</svg>
